<?xml version="1.0" standalone="no"?>
<!DOCTYPE svg PUBLIC "-//W3C//DTD SVG 20010904//EN"
 "http://www.w3.org/TR/2001/REC-SVG-20010904/DTD/svg10.dtd">
<svg version="1.0" xmlns="http://www.w3.org/2000/svg"
 width="5000.000000pt" height="5000.000000pt" viewBox="0 0 5000.000000 5000.000000"
 preserveAspectRatio="xMidYMid meet">
<metadata>
Created by potrace 1.14, written by Peter Selinger 2001-2017
</metadata>
<g transform="translate(0.000000,5000.000000) scale(0.100000,-0.100000)"
fill="#000000" stroke="none">
<path d="M24540 32647 c-30 -23 -131 -101 -225 -173 -93 -72 -219 -168 -280
-215 -60 -46 -117 -89 -125 -96 -22 -17 -666 -511 -795 -609 -60 -46 -155
-119 -211 -161 -55 -43 -118 -91 -140 -108 -21 -16 -174 -134 -339 -260 -165
-127 -356 -273 -425 -325 -69 -52 -130 -99 -136 -105 -6 -5 -82 -64 -168 -130
-87 -66 -278 -212 -425 -325 -147 -113 -280 -215 -297 -227 -16 -12 -40 -31
-54 -42 -14 -11 -149 -115 -300 -230 -436 -334 -580 -445 -603 -463 -12 -10
-121 -93 -242 -186 -584 -447 -671 -513 -685 -525 -8 -7 -71 -55 -140 -107
-69 -52 -130 -99 -136 -105 -6 -5 -101 -78 -210 -161 -181 -138 -394 -301
-419 -322 -5 -4 -68 -52 -140 -107 -268 -204 -340 -259 -345 -265 -3 -3 -41
-32 -85 -65 -44 -33 -82 -62 -85 -65 -3 -3 -32 -25 -65 -50 -149 -113 -885
-677 -924 -708 -18 -15 -41 -31 -50 -36 -9 -5 -18 -12 -21 -16 -3 -4 -72 -58
-155 -121 -82 -63 -285 -219 -450 -345 -165 -127 -363 -279 -440 -337 -77 -59
-159 -122 -181 -140 -23 -17 -73 -56 -110 -84 -38 -29 -136 -105 -219 -168
-82 -63 -154 -118 -160 -123 -5 -4 -28 -21 -50 -37 -22 -17 -42 -32 -45 -36
-3 -3 -43 -34 -90 -69 -47 -35 -89 -68 -95 -73 -5 -4 -75 -57 -155 -118 -80
-61 -154 -118 -165 -127 -11 -9 -77 -60 -145 -112 -69 -52 -129 -98 -135 -103
-5 -4 -75 -58 -155 -119 -155 -118 -198 -151 -239 -184 -36 -29 -265 -204
-307 -234 -55 -40 -309 -234 -314 -240 -3 -3 -93 -73 -200 -155 -368 -282
-425 -325 -515 -394 -49 -38 -135 -104 -190 -146 -55 -42 -149 -115 -210 -161
-60 -46 -185 -141 -276 -211 -92 -71 -181 -139 -200 -153 -18 -14 -65 -50
-103 -80 -39 -30 -89 -68 -111 -85 -22 -16 -47 -35 -55 -42 -8 -7 -71 -55
-140 -108 -69 -52 -144 -110 -167 -128 -22 -17 -54 -41 -69 -52 -15 -11 -39
-30 -53 -42 l-26 -22 -143 147 c-79 81 -291 297 -470 480 -180 184 -392 400
-470 480 -276 282 -879 897 -1082 1104 l-205 208 -41 -37 c-23 -21 -77 -69
-120 -108 -42 -38 -82 -74 -88 -80 -11 -10 -157 -140 -224 -200 -19 -16 -49
-43 -67 -60 -17 -16 -61 -55 -96 -87 -35 -31 -76 -67 -90 -80 -14 -12 -61 -54
-104 -93 -44 -38 -86 -77 -95 -85 -9 -8 -74 -67 -145 -130 -72 -63 -132 -117
-135 -120 -3 -3 -72 -66 -155 -140 -82 -74 -155 -139 -161 -145 -10 -9 -129
-116 -174 -155 -17 -15 -77 -69 -284 -254 -195 -174 -279 -250 -321 -288 -22
-20 -51 -46 -65 -58 -14 -12 -61 -54 -105 -94 -68 -63 -141 -127 -324 -291
-42 -37 -68 -60 -118 -105 -21 -19 -79 -71 -128 -115 -50 -44 -95 -84 -101
-90 -6 -5 -48 -44 -95 -85 -83 -75 -121 -109 -278 -250 -46 -41 -92 -82 -101
-90 -56 -49 -167 -149 -190 -170 -14 -14 -84 -77 -155 -140 -72 -63 -132 -117
-135 -120 -3 -3 -50 -45 -105 -94 -55 -49 -104 -94 -110 -100 -5 -6 -44 -40
-85 -76 -41 -36 -97 -86 -125 -111 -27 -25 -72 -66 -100 -90 -27 -24 -52 -46
-55 -49 -3 -3 -50 -45 -105 -94 -55 -49 -138 -124 -185 -166 -47 -42 -132
-119 -190 -170 -162 -144 -377 -337 -406 -365 -6 -5 -39 -35 -74 -65 -35 -30
-70 -62 -79 -71 -9 -9 -59 -54 -111 -100 -109 -96 -166 -147 -189 -169 -9 -9
-54 -49 -101 -90 -47 -41 -89 -80 -95 -86 -5 -6 -116 -105 -245 -220 -129
-115 -240 -213 -246 -219 -6 -5 -46 -41 -89 -80 -44 -38 -107 -95 -140 -125
-154 -139 -237 -213 -330 -296 -55 -49 -102 -91 -105 -94 -3 -3 -48 -44 -100
-90 -52 -46 -110 -98 -129 -115 -19 -16 -46 -41 -61 -55 -14 -14 -41 -37 -59
-53 -18 -15 -30 -27 -27 -27 3 0 54 25 114 56 59 31 177 92 262 136 85 44 193
101 240 125 47 25 108 57 135 70 28 14 57 29 65 34 8 4 65 33 125 65 61 31
146 76 190 99 44 23 157 82 250 130 94 48 211 109 260 135 50 26 158 82 240
125 153 79 293 152 490 255 61 32 182 95 270 140 201 104 384 199 500 260 50
26 171 89 270 140 99 51 223 115 275 143 52 27 169 87 260 134 91 47 192 100
225 118 33 18 155 81 270 141 116 60 249 129 297 154 48 25 160 83 250 129 90
46 186 96 213 111 28 15 131 69 230 120 174 90 320 166 530 275 55 29 163 85
240 125 77 40 190 98 250 130 61 32 174 91 253 131 78 41 182 94 230 119 123
64 391 204 562 293 l145 75 21 -21 c11 -12 76 -85 144 -162 69 -77 134 -149
145 -160 11 -11 76 -83 145 -160 69 -77 129 -145 135 -151 5 -6 44 -48 85 -94
164 -183 285 -317 329 -365 25 -28 64 -70 85 -95 22 -25 74 -83 116 -130 140
-154 150 -165 150 -175 0 -5 -12 -30 -26 -55 -14 -25 -42 -74 -61 -110 -34
-62 -76 -138 -114 -207 -10 -18 -35 -63 -55 -100 -20 -37 -47 -86 -59 -108
-39 -70 -47 -83 -210 -380 -12 -22 -73 -132 -135 -245 -62 -113 -125 -227
-140 -255 -15 -27 -51 -93 -80 -145 -29 -52 -67 -120 -83 -150 -17 -30 -49
-89 -72 -130 -23 -41 -60 -109 -83 -150 -22 -41 -83 -151 -135 -245 -52 -93
-93 -172 -91 -174 2 -2 29 16 61 39 79 57 1218 855 1268 888 22 15 45 31 50
35 6 5 111 79 235 166 124 86 446 312 715 501 270 189 532 374 584 410 51 36
114 80 140 98 25 17 57 40 71 50 14 9 99 69 189 132 90 63 170 120 179 125 9
6 21 14 26 18 6 5 92 65 191 135 99 69 241 168 315 220 74 53 171 120 215 151
67 47 293 206 444 312 20 14 95 66 166 116 136 94 403 281 540 378 60 43 879
617 1002 702 47 33 241 169 593 416 456 320 341 240 1060 743 322 226 608 427
636 447 28 20 54 37 57 37 5 0 -304 -418 -351 -475 -10 -11 -35 -45 -57 -75
-21 -30 -42 -57 -45 -60 -3 -3 -34 -43 -68 -90 -35 -47 -69 -92 -75 -100 -19
-24 -670 -890 -790 -1050 -59 -80 -114 -153 -122 -163 -8 -9 -178 -234 -377
-500 -199 -265 -366 -486 -371 -492 -10 -12 -444 -591 -472 -630 -11 -15 -29
-39 -41 -54 -12 -14 -113 -147 -224 -296 -648 -860 -808 -1075 -797 -1069 6 4
71 54 142 111 72 56 204 162 295 233 91 72 172 136 180 143 8 7 47 37 85 67
39 30 72 57 75 60 3 3 25 21 50 40 25 19 52 40 60 47 8 7 67 53 130 103 63 50
122 96 130 103 8 7 35 28 60 47 25 19 47 37 50 40 3 3 37 30 75 60 39 30 72
57 75 60 3 4 41 34 85 68 44 34 100 78 125 97 25 20 59 47 75 60 85 67 113 89
145 115 19 16 170 135 335 265 165 130 311 247 325 258 14 12 43 35 65 52 22
16 49 37 60 46 11 10 209 167 440 349 231 183 451 358 490 389 38 31 74 59 80
64 5 4 35 27 65 51 30 24 159 125 285 225 127 100 237 187 245 194 8 7 35 28
60 47 25 19 47 37 50 40 3 3 91 73 195 155 105 82 204 160 221 174 17 14 40
33 50 41 10 8 105 83 209 166 105 82 244 193 310 244 66 52 122 97 125 100 3
3 36 29 74 59 37 29 75 59 85 66 9 8 111 89 226 180 116 91 322 255 459 363
137 108 299 237 360 285 61 48 118 94 127 101 8 7 58 46 110 86 52 41 96 77
99 80 3 3 36 30 75 60 38 30 77 60 85 67 8 7 78 62 155 123 77 60 147 116 155
123 8 6 35 28 60 47 25 19 54 42 65 52 11 9 70 55 130 102 61 48 117 92 125
99 8 7 92 73 185 147 94 74 271 215 395 313 124 98 240 190 259 205 30 23 177
140 221 175 8 7 47 37 85 67 39 30 75 59 81 65 6 5 29 24 50 40 21 17 70 55
109 86 38 30 158 125 265 209 107 85 197 157 200 160 3 3 23 18 45 35 22 16
42 32 45 35 3 3 23 19 45 35 22 17 42 32 45 35 3 3 84 68 180 144 96 75 193
152 215 171 22 18 105 84 185 147 80 63 215 169 300 237 85 67 171 134 189
149 19 15 63 50 97 77 34 28 153 122 264 210 112 88 280 221 374 296 94 75
173 135 175 133 3 -2 -198 -278 -464 -639 -29 -38 -93 -126 -143 -195 -50 -69
-95 -129 -99 -135 -5 -5 -26 -35 -48 -65 -22 -30 -45 -62 -52 -70 -7 -8 -34
-45 -60 -82 -66 -92 -335 -460 -350 -478 -7 -8 -103 -139 -213 -290 -111 -151
-206 -282 -213 -290 -7 -8 -73 -98 -147 -200 -74 -102 -138 -189 -142 -195 -5
-5 -50 -66 -100 -135 -50 -69 -119 -163 -154 -210 -55 -75 -167 -228 -208
-285 -8 -11 -55 -74 -103 -140 -49 -66 -171 -232 -272 -370 -100 -137 -191
-261 -201 -275 -11 -14 -85 -115 -165 -225 -197 -268 -295 -402 -375 -510 -36
-49 -109 -148 -160 -220 -52 -71 -97 -132 -100 -135 -3 -3 -34 -45 -70 -95
-57 -79 -231 -317 -369 -502 -25 -35 -59 -81 -76 -105 -16 -23 -51 -70 -77
-105 -26 -35 -44 -63 -39 -63 4 0 27 13 52 29 38 24 377 225 479 283 19 11 78
46 130 77 52 32 136 81 185 110 93 54 101 59 170 101 22 13 49 30 61 36 20 11
71 41 474 279 91 54 174 103 185 109 11 6 73 43 138 81 65 39 130 77 145 86
102 60 450 265 562 332 74 44 160 94 190 112 82 48 810 477 1000 590 91 54
190 112 220 130 30 17 143 84 250 147 614 362 1089 643 1116 658 17 10 42 24
55 32 12 7 28 17 33 21 13 9 357 211 377 220 8 4 81 47 163 97 140 83 150 88
160 69 14 -25 113 -177 264 -406 67 -102 122 -187 122 -189 0 -2 60 -94 133
-206 150 -230 327 -501 342 -525 6 -8 51 -78 100 -154 50 -76 149 -229 220
-339 135 -208 318 -490 448 -690 41 -63 107 -164 146 -225 39 -60 76 -117 81
-125 6 -8 34 -51 63 -96 28 -44 104 -160 167 -258 63 -97 147 -225 185 -284
39 -59 128 -197 199 -307 124 -192 215 -331 371 -570 39 -60 85 -131 101 -157
16 -27 32 -48 37 -48 4 0 7 -4 7 -9 0 -5 39 -69 86 -143 l86 -133 -7 90 c-4
50 -9 99 -11 109 -2 11 -6 49 -9 85 -3 36 -7 82 -10 101 -2 19 -7 69 -11 110
-3 41 -8 83 -9 92 -2 9 -6 52 -10 95 -3 43 -8 85 -10 93 -2 8 -7 49 -10 90 -4
41 -8 86 -10 100 -2 14 -6 59 -10 100 -4 41 -8 86 -10 100 -2 14 -7 61 -10
105 -4 44 -9 88 -10 97 -2 9 -6 48 -10 85 -3 37 -8 82 -10 98 -3 17 -7 59 -10
95 -3 36 -8 81 -10 100 -2 19 -7 64 -10 100 -3 36 -8 81 -10 100 -2 19 -7 62
-10 95 -3 33 -8 80 -10 105 -3 25 -7 68 -10 95 -3 28 -7 64 -9 80 -3 17 -8 66
-11 110 -4 44 -8 91 -10 105 -2 14 -7 52 -10 85 -5 57 -9 96 -20 195 -2 25 -7
70 -10 100 -2 30 -10 98 -15 150 -6 52 -13 120 -16 150 -2 30 -6 74 -9 98 -10
88 -15 129 -20 182 -13 140 -16 168 -20 205 -2 22 -7 67 -10 100 -3 33 -8 75
-11 92 l-5 33 43 -19 c24 -10 117 -55 208 -99 248 -119 402 -193 535 -257 308
-148 376 -180 460 -220 50 -23 167 -80 260 -125 94 -45 206 -99 250 -120 44
-21 148 -70 230 -110 83 -40 204 -98 270 -130 66 -31 181 -87 255 -122 74 -36
182 -88 240 -116 58 -27 157 -74 220 -105 63 -30 162 -77 220 -105 58 -27 194
-93 303 -146 109 -53 200 -96 202 -96 1 0 94 -44 206 -99 112 -54 242 -116
289 -139 47 -22 148 -70 225 -107 77 -37 194 -93 260 -125 66 -32 183 -88 260
-125 140 -68 275 -132 480 -230 61 -29 167 -80 238 -114 70 -33 182 -87 250
-120 67 -32 185 -89 262 -126 77 -37 183 -87 235 -112 52 -25 169 -82 260
-126 91 -44 201 -96 245 -117 142 -67 286 -136 455 -218 267 -129 502 -242
505 -242 2 0 92 -43 201 -96 110 -53 244 -118 299 -144 127 -61 308 -148 500
-240 83 -40 186 -89 230 -110 44 -21 152 -73 240 -115 150 -72 215 -104 490
-235 61 -29 171 -82 245 -117 74 -36 187 -90 250 -120 63 -31 171 -82 240
-115 69 -33 181 -87 250 -120 69 -33 152 -74 185 -90 70 -36 122 -55 91 -35
-10 6 -37 26 -60 43 -22 17 -72 52 -111 79 -69 48 -381 267 -480 336 -27 20
-110 78 -183 130 -74 52 -145 101 -158 109 -13 8 -99 68 -191 133 -344 243
-540 380 -603 423 -36 24 -90 62 -120 83 -54 39 -832 584 -1072 751 -67 47
-149 104 -182 128 -34 23 -101 71 -150 105 -49 34 -98 69 -110 77 -11 8 -88
62 -171 119 -82 58 -172 120 -200 140 -27 19 -117 82 -200 140 -82 58 -151
109 -153 113 -2 4 -7 8 -12 8 -4 0 -86 55 -182 122 -95 67 -206 144 -246 172
-40 28 -109 77 -155 109 -45 31 -119 83 -165 114 -80 55 -82 57 -60 69 24 12
294 122 748 304 140 56 269 108 285 115 30 13 534 217 895 361 102 41 194 79
205 84 11 5 106 43 210 85 105 42 203 82 219 89 26 13 33 11 110 -32 44 -24
110 -61 146 -80 36 -19 144 -79 240 -132 96 -53 204 -113 240 -132 36 -19 127
-69 202 -111 75 -42 163 -90 195 -107 32 -17 65 -35 73 -40 15 -10 398 -221
550 -303 41 -22 111 -61 155 -85 44 -25 103 -57 130 -72 28 -15 78 -43 112
-61 33 -19 89 -49 123 -67 34 -19 77 -42 96 -52 18 -11 64 -36 101 -56 37 -20
73 -40 78 -44 6 -4 44 -25 85 -47 71 -38 291 -159 620 -340 80 -44 174 -96
210 -115 106 -58 163 -89 195 -108 17 -9 62 -34 100 -55 39 -21 111 -60 160
-88 50 -27 115 -63 145 -80 30 -16 73 -40 95 -52 22 -12 66 -37 98 -54 136
-74 177 -96 257 -141 47 -26 207 -114 355 -195 149 -82 284 -156 300 -165 45
-25 133 -73 200 -110 33 -18 123 -67 200 -110 77 -42 259 -143 405 -223 261
-142 1203 -660 1310 -720 85 -47 579 -318 705 -387 28 -15 66 -37 86 -48 21
-11 63 -35 95 -52 33 -17 66 -35 74 -40 8 -6 121 -68 250 -138 291 -159 321
-176 445 -244 99 -55 119 -66 330 -181 61 -33 115 -63 120 -67 6 -4 44 -25 85
-47 41 -22 95 -51 120 -65 25 -14 70 -39 100 -55 86 -47 159 -88 228 -127 35
-20 66 -36 69 -36 3 0 18 -9 34 -21 16 -11 29 -18 29 -15 0 4 17 -4 38 -17 31
-20 118 -68 307 -172 22 -12 60 -33 85 -47 25 -14 122 -67 215 -118 94 -51
190 -104 215 -118 25 -13 74 -40 110 -60 36 -20 88 -48 115 -64 28 -16 64 -36
80 -44 17 -8 48 -25 70 -37 141 -80 355 -196 355 -192 0 1 -26 22 -57 46 -32
24 -132 102 -223 173 -91 72 -190 149 -220 173 -44 34 -338 264 -531 415 -19
14 -99 78 -179 140 -80 63 -176 138 -215 168 -38 30 -74 58 -80 62 -5 5 -50
40 -100 79 -49 38 -97 75 -105 82 -8 7 -35 28 -60 47 -25 19 -52 40 -60 47
-24 19 -456 357 -489 382 -16 13 -90 70 -163 127 -73 58 -261 205 -418 327
-157 121 -287 224 -290 227 -3 3 -106 84 -230 180 -124 96 -232 180 -240 187
-8 7 -83 66 -166 130 -83 65 -166 130 -185 145 -73 58 -487 381 -539 422 -84
64 -244 190 -256 201 -7 5 -44 35 -84 65 -66 51 -455 355 -490 383 -8 7 -56
43 -105 82 -50 38 -97 75 -105 82 -14 11 -217 169 -680 531 -107 84 -202 158
-210 165 -8 7 -55 44 -105 82 -49 38 -95 74 -102 80 -6 5 -44 35 -83 65 -40
30 -141 109 -225 175 -83 66 -167 131 -185 145 -18 14 -128 100 -244 191 -440
345 -1079 845 -1104 864 -15 11 -279 217 -587 458 -308 241 -576 450 -595 465
-19 15 -60 47 -91 72 -32 25 -153 119 -269 210 -283 221 -611 478 -630 493 -8
7 -56 43 -105 82 -50 38 -92 72 -95 75 -3 3 -21 17 -40 30 -19 13 -37 27 -40
30 -3 3 -55 45 -117 93 -61 47 -120 93 -130 101 -10 9 -83 66 -163 128 -80 61
-147 114 -150 118 -3 3 -23 18 -45 35 -22 16 -42 31 -45 34 -17 19 -130 101
-139 101 -9 0 -64 -22 -266 -105 -22 -9 -53 -22 -70 -30 -16 -7 -55 -23 -85
-35 -30 -12 -68 -28 -85 -35 -16 -8 -55 -24 -85 -35 -30 -12 -68 -28 -85 -35
-16 -8 -124 -53 -240 -100 -115 -48 -301 -125 -412 -171 -112 -46 -296 -122
-410 -169 -115 -47 -217 -90 -228 -95 -11 -5 -114 -48 -230 -96 -199 -81 -464
-191 -530 -219 -16 -7 -228 -95 -470 -195 -617 -255 -607 -251 -640 -265 -35
-16 -277 -115 -286 -118 -5 -2 -245 197 -313 258 -6 6 -119 103 -251 215 -132
113 -251 215 -265 226 -14 12 -77 66 -140 119 -63 54 -140 119 -170 145 -30
26 -89 76 -130 111 -41 35 -77 66 -80 69 -3 3 -48 41 -100 85 -52 44 -97 82
-100 85 -3 3 -32 28 -65 55 -33 28 -62 52 -65 55 -4 5 -77 67 -164 140 -17 14
-48 41 -70 61 -33 28 -178 151 -335 284 -13 11 -29 25 -35 30 -6 6 -45 39 -86
74 -41 35 -86 73 -100 85 -14 11 -90 76 -170 144 -80 68 -167 143 -195 167
-27 23 -131 111 -230 196 -99 84 -191 163 -205 175 -14 12 -63 54 -110 94 -47
40 -96 82 -110 94 -14 11 -86 73 -160 136 -74 63 -140 119 -146 125 -6 5 -33
28 -59 50 -27 22 -53 45 -59 50 -6 6 -38 33 -71 60 -33 28 -73 62 -90 77 -34
30 -51 44 -126 108 -30 25 -85 72 -124 105 -38 33 -128 109 -200 169 -71 60
-142 121 -157 135 -15 14 -33 31 -40 36 -17 12 -139 116 -154 130 -6 6 -31 27
-54 46 -23 18 -47 39 -54 44 -6 6 -58 51 -116 100 -58 50 -107 92 -110 95 -3
3 -32 28 -65 55 -33 28 -62 52 -65 55 -3 3 -111 95 -240 205 -129 109 -253
215 -275 234 -22 20 -65 56 -94 81 -53 44 -160 135 -271 231 -30 26 -118 100
-195 165 -77 65 -142 121 -145 124 -3 3 -52 45 -110 94 -58 48 -116 98 -130
110 -14 12 -106 91 -205 175 -213 181 -212 181 -295 251 -36 30 -67 58 -70 61
-3 3 -34 30 -70 59 -36 30 -72 61 -81 69 -9 9 -34 30 -55 48 -22 18 -51 42
-65 55 -15 13 -49 41 -75 64 -82 69 -477 405 -515 438 -19 17 -46 40 -60 51
-21 17 -203 173 -279 239 -14 11 -99 84 -190 161 -91 76 -167 142 -170 145 -6
6 -258 219 -280 237 -12 9 -26 3 -70 -30z"/>
</g>
</svg>
